<?xml version="1.0" standalone="no"?>
<!DOCTYPE svg PUBLIC "-//W3C//DTD SVG 20010904//EN"
 "http://www.w3.org/TR/2001/REC-SVG-20010904/DTD/svg10.dtd">
<svg version="1.0" xmlns="http://www.w3.org/2000/svg"
 width="2400.000000pt" height="2400.000000pt" viewBox="0 0 2400.000000 2400.000000"
 preserveAspectRatio="xMidYMid meet">
<metadata>
Created by potrace 1.14, written by Peter Selinger 2001-2017
</metadata>
<g transform="translate(0.000000,2400.000000) scale(0.100000,-0.100000)"
fill="#000000" stroke="none">
<path d="M11370 21763 c-401 -21 -616 -40 -955 -83 -2791 -358 -5333 -1796
-7039 -3983 -666 -855 -1189 -1807 -1544 -2813 -435 -1230 -618 -2535 -541
-3849 122 -2095 922 -4105 2288 -5749 378 -455 868 -944 1336 -1336 1673
-1398 3763 -2254 5970 -2445 456 -39 1123 -50 1540 -26 1142 67 2164 276 3200
657 1906 698 3585 1943 4792 3549 765 1018 1333 2179 1657 3390 389 1452 439
2991 145 4459 -455 2276 -1693 4312 -3539 5824 -1201 984 -2623 1697 -4145
2080 -726 183 -1387 282 -2160 322 -168 9 -860 11 -1005 3z m495 -1313 c956
-62 1794 -279 2425 -628 364 -202 650 -478 744 -719 141 -361 -56 -664 -609
-933 -511 -249 -1226 -465 -3990 -1204 -154 -41 -597 -160 -985 -264 -2196
-592 -2797 -719 -3295 -699 -463 19 -676 196 -675 562 1 195 61 402 196 675
381 767 1202 1618 2134 2212 907 577 1911 909 2990 988 80 5 163 12 185 13
102 9 737 6 880 -3z m3250 -14254 c44 -3 89 -8 100 -10 11 -2 49 -7 85 -10 61
-6 95 -11 148 -21 60 -13 80 -17 136 -31 34 -8 72 -17 85 -20 13 -3 31 -9 40
-13 9 -5 18 -9 21 -9 3 0 19 -6 35 -12 17 -6 42 -14 58 -17 15 -3 27 -9 27
-14 0 -5 3 -8 8 -7 17 3 151 -62 183 -88 8 -8 19 -14 23 -14 4 0 13 -6 21 -12
7 -7 30 -26 50 -43 21 -16 42 -34 47 -40 72 -83 89 -103 96 -120 26 -56 36
-82 39 -105 3 -13 8 -29 12 -35 11 -14 6 -169 -7 -225 -15 -67 -45 -139 -86
-209 -20 -34 -36 -64 -36 -67 0 -2 -8 -12 -17 -22 -10 -10 -25 -29 -33 -41
-31 -47 -173 -201 -185 -201 -2 0 -17 -12 -33 -27 -16 -16 -48 -44 -72 -63
-24 -19 -52 -43 -62 -52 -10 -10 -20 -18 -23 -18 -6 0 -20 -11 -50 -37 -7 -7
-18 -13 -24 -13 -6 0 -11 -4 -11 -10 0 -5 -7 -10 -15 -10 -8 0 -15 -4 -15 -8
0 -5 -12 -15 -27 -23 -16 -7 -41 -23 -58 -35 -29 -22 -65 -43 -135 -80 -19
-11 -37 -21 -40 -24 -3 -3 -18 -12 -35 -20 -16 -8 -32 -17 -35 -20 -13 -13
-70 -40 -83 -40 -9 0 -17 -3 -19 -7 -4 -10 -131 -73 -146 -73 -7 0 -12 -4 -12
-10 0 -5 -16 -12 -35 -16 -19 -3 -35 -10 -35 -14 0 -4 -20 -13 -45 -20 -25 -7
-45 -16 -45 -20 0 -5 -22 -13 -50 -20 -27 -7 -50 -15 -50 -19 0 -4 -28 -16
-62 -25 -35 -10 -65 -21 -68 -25 -5 -8 -560 -174 -685 -206 -38 -9 -78 -17
-88 -17 -10 1 -36 -6 -58 -14 -23 -7 -45 -12 -49 -9 -5 3 -21 0 -36 -6 -16 -5
-42 -12 -59 -14 -16 -1 -70 -10 -119 -19 -49 -8 -92 -14 -95 -14 -3 1 -19 -1
-36 -5 -57 -12 -202 -27 -435 -43 -179 -13 -582 -6 -671 11 -13 3 -53 7 -89
11 -36 3 -74 8 -85 11 -11 3 -32 6 -47 7 -15 1 -30 5 -34 8 -3 4 -12 4 -19 2
-7 -3 -16 0 -20 5 -3 6 -10 9 -15 6 -4 -2 -28 2 -54 9 -25 8 -46 12 -46 9 0
-3 -6 0 -13 6 -8 6 -17 8 -20 4 -4 -3 -12 -1 -20 5 -7 6 -24 13 -37 16 -24 4
-97 29 -130 43 -8 3 -17 7 -20 8 -8 2 -123 61 -157 81 -18 11 -33 22 -33 27 0
4 -6 7 -12 7 -20 0 -96 66 -164 142 -27 30 -78 118 -69 118 4 0 2 6 -4 14 -17
20 -22 48 -28 153 -4 70 -2 104 11 142 9 27 16 56 16 64 0 20 56 132 91 184
16 23 29 44 29 48 0 4 6 12 13 20 6 7 26 30 42 51 34 43 211 224 219 224 2 0
20 14 38 31 18 17 58 48 89 69 31 22 64 46 72 55 9 8 20 15 25 15 6 0 12 3 14
8 5 10 146 102 158 102 5 0 10 4 10 9 0 5 8 11 18 14 23 8 76 40 80 50 2 4 12
7 23 7 10 0 19 3 19 8 0 4 20 16 45 27 25 11 45 23 45 28 0 4 9 7 20 7 11 0
20 4 20 9 0 5 14 12 30 16 17 4 30 11 30 16 0 5 5 9 12 9 6 0 41 14 77 31 152
70 217 99 226 99 3 0 25 9 48 19 23 10 62 25 87 32 25 7 47 16 50 20 7 9 601
189 625 189 10 0 41 6 69 14 63 18 154 38 183 42 11 1 29 5 40 8 17 5 63 13
123 21 14 2 50 8 80 14 30 6 78 13 105 16 28 3 64 8 80 10 74 11 187 22 315
30 52 3 95 7 97 8 4 5 432 -1 508 -7z"/>
</g>
</svg>
